<mxfile host="app.diagrams.net" agent="Mozilla/5.0 (Windows NT 10.0; Win64; x64) AppleWebKit/537.36 (KHTML, like Gecko) Chrome/133.0.0.0 Safari/537.36" version="26.1.0">
  <diagram id="DZQKMb358LWyOsux6AOm" name="Page-1">
    <mxGraphModel dx="1737" dy="753" grid="0" gridSize="10" guides="1" tooltips="1" connect="1" arrows="1" fold="1" page="0" pageScale="1" pageWidth="850" pageHeight="1100" math="0" shadow="0">
      <root>
        <mxCell id="0" />
        <mxCell id="1" parent="0" />
        <mxCell id="aEx_0A4JMDG5HL9hJ4v2-8" value="" style="edgeStyle=none;curved=1;rounded=0;orthogonalLoop=1;jettySize=auto;html=1;fontSize=12;startSize=8;endSize=8;" edge="1" parent="1" source="aEx_0A4JMDG5HL9hJ4v2-1" target="aEx_0A4JMDG5HL9hJ4v2-3">
          <mxGeometry relative="1" as="geometry" />
        </mxCell>
        <mxCell id="aEx_0A4JMDG5HL9hJ4v2-1" value="start" style="ellipse;whiteSpace=wrap;html=1;" vertex="1" parent="1">
          <mxGeometry x="139" y="140" width="120" height="80" as="geometry" />
        </mxCell>
        <mxCell id="aEx_0A4JMDG5HL9hJ4v2-15" value="" style="edgeStyle=none;curved=1;rounded=0;orthogonalLoop=1;jettySize=auto;html=1;fontSize=12;startSize=8;endSize=8;" edge="1" parent="1" source="aEx_0A4JMDG5HL9hJ4v2-2" target="aEx_0A4JMDG5HL9hJ4v2-13">
          <mxGeometry relative="1" as="geometry" />
        </mxCell>
        <mxCell id="aEx_0A4JMDG5HL9hJ4v2-2" value="rumus konvert&lt;div&gt;centimeter&lt;/div&gt;" style="rounded=0;whiteSpace=wrap;html=1;" vertex="1" parent="1">
          <mxGeometry x="139" y="581" width="120" height="60" as="geometry" />
        </mxCell>
        <mxCell id="aEx_0A4JMDG5HL9hJ4v2-10" value="" style="edgeStyle=none;curved=1;rounded=0;orthogonalLoop=1;jettySize=auto;html=1;fontSize=12;startSize=8;endSize=8;" edge="1" parent="1" source="aEx_0A4JMDG5HL9hJ4v2-3" target="aEx_0A4JMDG5HL9hJ4v2-4">
          <mxGeometry relative="1" as="geometry" />
        </mxCell>
        <mxCell id="aEx_0A4JMDG5HL9hJ4v2-3" value="rumus konvert&lt;div&gt;meter&lt;/div&gt;" style="rounded=0;whiteSpace=wrap;html=1;" vertex="1" parent="1">
          <mxGeometry x="139" y="269" width="120" height="60" as="geometry" />
        </mxCell>
        <mxCell id="aEx_0A4JMDG5HL9hJ4v2-11" value="" style="edgeStyle=none;curved=1;rounded=0;orthogonalLoop=1;jettySize=auto;html=1;fontSize=12;startSize=8;endSize=8;" edge="1" parent="1" source="aEx_0A4JMDG5HL9hJ4v2-4" target="aEx_0A4JMDG5HL9hJ4v2-5">
          <mxGeometry relative="1" as="geometry" />
        </mxCell>
        <mxCell id="aEx_0A4JMDG5HL9hJ4v2-4" value="rumus konvert&lt;div&gt;foot&lt;/div&gt;" style="rounded=0;whiteSpace=wrap;html=1;" vertex="1" parent="1">
          <mxGeometry x="139" y="373" width="120" height="60" as="geometry" />
        </mxCell>
        <mxCell id="aEx_0A4JMDG5HL9hJ4v2-12" value="" style="edgeStyle=none;curved=1;rounded=0;orthogonalLoop=1;jettySize=auto;html=1;fontSize=12;startSize=8;endSize=8;" edge="1" parent="1" source="aEx_0A4JMDG5HL9hJ4v2-5" target="aEx_0A4JMDG5HL9hJ4v2-2">
          <mxGeometry relative="1" as="geometry" />
        </mxCell>
        <mxCell id="aEx_0A4JMDG5HL9hJ4v2-5" value="rumus konvert&lt;div&gt;mile&lt;/div&gt;" style="rounded=0;whiteSpace=wrap;html=1;" vertex="1" parent="1">
          <mxGeometry x="139" y="477" width="120" height="60" as="geometry" />
        </mxCell>
        <mxCell id="aEx_0A4JMDG5HL9hJ4v2-16" value="" style="edgeStyle=none;curved=1;rounded=0;orthogonalLoop=1;jettySize=auto;html=1;fontSize=12;startSize=8;endSize=8;" edge="1" parent="1" source="aEx_0A4JMDG5HL9hJ4v2-13" target="aEx_0A4JMDG5HL9hJ4v2-14">
          <mxGeometry relative="1" as="geometry" />
        </mxCell>
        <mxCell id="aEx_0A4JMDG5HL9hJ4v2-13" value="string username =&lt;div&gt;&quot;AjivaAlankSetiandra&quot;&amp;nbsp;&lt;/div&gt;" style="rounded=0;whiteSpace=wrap;html=1;" vertex="1" parent="1">
          <mxGeometry x="122" y="684" width="154" height="63" as="geometry" />
        </mxCell>
        <mxCell id="aEx_0A4JMDG5HL9hJ4v2-14" value="string username =&lt;div&gt;&quot;2409106017&quot;&lt;/div&gt;" style="rounded=0;whiteSpace=wrap;html=1;" vertex="1" parent="1">
          <mxGeometry x="122" y="781" width="154" height="56" as="geometry" />
        </mxCell>
        <mxCell id="aEx_0A4JMDG5HL9hJ4v2-47" value="" style="edgeStyle=none;curved=1;rounded=0;orthogonalLoop=1;jettySize=auto;html=1;fontSize=12;startSize=8;endSize=8;" edge="1" parent="1" source="aEx_0A4JMDG5HL9hJ4v2-17">
          <mxGeometry relative="1" as="geometry">
            <mxPoint x="199" y="1470" as="targetPoint" />
          </mxGeometry>
        </mxCell>
        <mxCell id="aEx_0A4JMDG5HL9hJ4v2-17" value="if nama == username&lt;div&gt;&amp;amp;&amp;amp;&lt;/div&gt;&lt;div&gt;pw == password&amp;nbsp;&lt;/div&gt;" style="rhombus;whiteSpace=wrap;html=1;" vertex="1" parent="1">
          <mxGeometry x="115.5" y="1300" width="167" height="120" as="geometry" />
        </mxCell>
        <mxCell id="aEx_0A4JMDG5HL9hJ4v2-18" style="edgeStyle=none;curved=1;rounded=0;orthogonalLoop=1;jettySize=auto;html=1;exitX=0.5;exitY=1;exitDx=0;exitDy=0;fontSize=12;startSize=8;endSize=8;" edge="1" parent="1" source="aEx_0A4JMDG5HL9hJ4v2-13" target="aEx_0A4JMDG5HL9hJ4v2-13">
          <mxGeometry relative="1" as="geometry" />
        </mxCell>
        <mxCell id="aEx_0A4JMDG5HL9hJ4v2-22" value="" style="edgeStyle=none;curved=1;rounded=0;orthogonalLoop=1;jettySize=auto;html=1;fontSize=12;startSize=8;endSize=8;" edge="1" parent="1" source="aEx_0A4JMDG5HL9hJ4v2-19" target="aEx_0A4JMDG5HL9hJ4v2-20">
          <mxGeometry relative="1" as="geometry" />
        </mxCell>
        <mxCell id="aEx_0A4JMDG5HL9hJ4v2-19" value="string name, pw" style="rounded=0;whiteSpace=wrap;html=1;" vertex="1" parent="1">
          <mxGeometry x="139" y="866" width="120" height="60" as="geometry" />
        </mxCell>
        <mxCell id="aEx_0A4JMDG5HL9hJ4v2-27" value="" style="edgeStyle=none;curved=1;rounded=0;orthogonalLoop=1;jettySize=auto;html=1;fontSize=12;startSize=8;endSize=8;" edge="1" parent="1" source="aEx_0A4JMDG5HL9hJ4v2-20" target="aEx_0A4JMDG5HL9hJ4v2-26">
          <mxGeometry relative="1" as="geometry" />
        </mxCell>
        <mxCell id="aEx_0A4JMDG5HL9hJ4v2-20" value="int pilihan&lt;div&gt;int percobaan = 0&lt;/div&gt;&lt;div&gt;const int bataspercobaan = 3&lt;/div&gt;" style="rounded=0;whiteSpace=wrap;html=1;" vertex="1" parent="1">
          <mxGeometry x="123" y="952" width="150" height="60" as="geometry" />
        </mxCell>
        <mxCell id="aEx_0A4JMDG5HL9hJ4v2-25" value="" style="endArrow=classic;html=1;rounded=0;fontSize=12;startSize=8;endSize=8;curved=1;exitX=0.5;exitY=1;exitDx=0;exitDy=0;entryX=0.5;entryY=0;entryDx=0;entryDy=0;" edge="1" parent="1" source="aEx_0A4JMDG5HL9hJ4v2-14" target="aEx_0A4JMDG5HL9hJ4v2-19">
          <mxGeometry width="50" height="50" relative="1" as="geometry">
            <mxPoint x="61" y="922" as="sourcePoint" />
            <mxPoint x="111" y="872" as="targetPoint" />
          </mxGeometry>
        </mxCell>
        <mxCell id="aEx_0A4JMDG5HL9hJ4v2-36" value="" style="edgeStyle=none;curved=1;rounded=0;orthogonalLoop=1;jettySize=auto;html=1;fontSize=12;startSize=8;endSize=8;" edge="1" parent="1" source="aEx_0A4JMDG5HL9hJ4v2-26">
          <mxGeometry relative="1" as="geometry">
            <mxPoint x="403" y="1115.5" as="targetPoint" />
          </mxGeometry>
        </mxCell>
        <mxCell id="aEx_0A4JMDG5HL9hJ4v2-44" value="" style="edgeStyle=none;curved=1;rounded=0;orthogonalLoop=1;jettySize=auto;html=1;fontSize=12;startSize=8;endSize=8;" edge="1" parent="1" source="aEx_0A4JMDG5HL9hJ4v2-26" target="aEx_0A4JMDG5HL9hJ4v2-43">
          <mxGeometry relative="1" as="geometry" />
        </mxCell>
        <mxCell id="aEx_0A4JMDG5HL9hJ4v2-26" value="percobaan&amp;nbsp; &amp;lt; bataspercobaan" style="rhombus;whiteSpace=wrap;html=1;" vertex="1" parent="1">
          <mxGeometry x="99" y="1052" width="198" height="127" as="geometry" />
        </mxCell>
        <mxCell id="aEx_0A4JMDG5HL9hJ4v2-30" value="yes" style="text;html=1;align=center;verticalAlign=middle;whiteSpace=wrap;rounded=0;" vertex="1" parent="1">
          <mxGeometry x="190" y="1179" width="57" height="10" as="geometry" />
        </mxCell>
        <mxCell id="aEx_0A4JMDG5HL9hJ4v2-37" value="anda telah gagal login&lt;div&gt;3 kali, program berhenti&lt;/div&gt;" style="shape=parallelogram;perimeter=parallelogramPerimeter;whiteSpace=wrap;html=1;fixedSize=1;" vertex="1" parent="1">
          <mxGeometry x="399" y="1085.5" width="162" height="74.5" as="geometry" />
        </mxCell>
        <mxCell id="aEx_0A4JMDG5HL9hJ4v2-38" value="" style="endArrow=classic;html=1;rounded=0;fontSize=12;startSize=8;endSize=8;curved=1;" edge="1" parent="1">
          <mxGeometry width="50" height="50" relative="1" as="geometry">
            <mxPoint x="540" y="1160" as="sourcePoint" />
            <mxPoint x="581" y="1160" as="targetPoint" />
          </mxGeometry>
        </mxCell>
        <mxCell id="aEx_0A4JMDG5HL9hJ4v2-39" value="no" style="text;html=1;align=center;verticalAlign=middle;whiteSpace=wrap;rounded=0;" vertex="1" parent="1">
          <mxGeometry x="313" y="1100.5" width="60" height="30" as="geometry" />
        </mxCell>
        <mxCell id="aEx_0A4JMDG5HL9hJ4v2-40" value="" style="endArrow=classic;html=1;rounded=0;fontSize=12;startSize=8;endSize=8;curved=0;exitX=0;exitY=0.5;exitDx=0;exitDy=0;entryX=0;entryY=0.5;entryDx=0;entryDy=0;" edge="1" parent="1" source="aEx_0A4JMDG5HL9hJ4v2-17" target="aEx_0A4JMDG5HL9hJ4v2-26">
          <mxGeometry width="50" height="50" relative="1" as="geometry">
            <mxPoint x="106" y="1221" as="sourcePoint" />
            <mxPoint x="156" y="1171" as="targetPoint" />
            <Array as="points">
              <mxPoint x="-40" y="1360" />
              <mxPoint x="-40" y="1116" />
            </Array>
          </mxGeometry>
        </mxCell>
        <mxCell id="aEx_0A4JMDG5HL9hJ4v2-41" value="no" style="text;html=1;align=center;verticalAlign=middle;whiteSpace=wrap;rounded=0;" vertex="1" parent="1">
          <mxGeometry x="10" y="1345" width="60" height="30" as="geometry" />
        </mxCell>
        <mxCell id="aEx_0A4JMDG5HL9hJ4v2-45" value="" style="edgeStyle=none;curved=1;rounded=0;orthogonalLoop=1;jettySize=auto;html=1;fontSize=12;startSize=8;endSize=8;" edge="1" parent="1" source="aEx_0A4JMDG5HL9hJ4v2-43" target="aEx_0A4JMDG5HL9hJ4v2-17">
          <mxGeometry relative="1" as="geometry" />
        </mxCell>
        <mxCell id="aEx_0A4JMDG5HL9hJ4v2-43" value="cin &amp;gt;&amp;gt; nama;&lt;div&gt;cin &amp;gt;&amp;gt; pw&lt;/div&gt;" style="shape=parallelogram;perimeter=parallelogramPerimeter;whiteSpace=wrap;html=1;fixedSize=1;" vertex="1" parent="1">
          <mxGeometry x="113" y="1210" width="170" height="60" as="geometry" />
        </mxCell>
        <mxCell id="aEx_0A4JMDG5HL9hJ4v2-48" value="yes" style="text;html=1;align=center;verticalAlign=middle;whiteSpace=wrap;rounded=0;" vertex="1" parent="1">
          <mxGeometry x="169" y="1430" width="60" height="30" as="geometry" />
        </mxCell>
        <mxCell id="aEx_0A4JMDG5HL9hJ4v2-57" value="" style="edgeStyle=none;curved=1;rounded=0;orthogonalLoop=1;jettySize=auto;html=1;fontSize=12;startSize=8;endSize=8;" edge="1" parent="1" source="aEx_0A4JMDG5HL9hJ4v2-49" target="aEx_0A4JMDG5HL9hJ4v2-56">
          <mxGeometry relative="1" as="geometry" />
        </mxCell>
        <mxCell id="aEx_0A4JMDG5HL9hJ4v2-49" value="login berhasil" style="shape=parallelogram;perimeter=parallelogramPerimeter;whiteSpace=wrap;html=1;fixedSize=1;" vertex="1" parent="1">
          <mxGeometry x="138" y="1470" width="120" height="60" as="geometry" />
        </mxCell>
        <mxCell id="aEx_0A4JMDG5HL9hJ4v2-50" value="" style="endArrow=classic;html=1;rounded=0;fontSize=12;startSize=8;endSize=8;curved=1;" edge="1" parent="1">
          <mxGeometry width="50" height="50" relative="1" as="geometry">
            <mxPoint x="232" y="1530" as="sourcePoint" />
            <mxPoint x="273" y="1530" as="targetPoint" />
          </mxGeometry>
        </mxCell>
        <mxCell id="aEx_0A4JMDG5HL9hJ4v2-62" value="" style="edgeStyle=none;curved=1;rounded=0;orthogonalLoop=1;jettySize=auto;html=1;fontSize=12;startSize=8;endSize=8;" edge="1" parent="1" source="aEx_0A4JMDG5HL9hJ4v2-51" target="aEx_0A4JMDG5HL9hJ4v2-61">
          <mxGeometry relative="1" as="geometry" />
        </mxCell>
        <mxCell id="aEx_0A4JMDG5HL9hJ4v2-86" value="" style="edgeStyle=none;curved=1;rounded=0;orthogonalLoop=1;jettySize=auto;html=1;fontSize=12;startSize=8;endSize=8;" edge="1" parent="1" source="aEx_0A4JMDG5HL9hJ4v2-51" target="aEx_0A4JMDG5HL9hJ4v2-85">
          <mxGeometry relative="1" as="geometry" />
        </mxCell>
        <mxCell id="aEx_0A4JMDG5HL9hJ4v2-51" value="pilihan&lt;div&gt;(1/2/3/4)&lt;/div&gt;" style="rhombus;whiteSpace=wrap;html=1;" vertex="1" parent="1">
          <mxGeometry x="109" y="1670" width="180" height="80" as="geometry" />
        </mxCell>
        <mxCell id="aEx_0A4JMDG5HL9hJ4v2-59" value="" style="edgeStyle=none;curved=1;rounded=0;orthogonalLoop=1;jettySize=auto;html=1;fontSize=12;startSize=8;endSize=8;" edge="1" parent="1" source="aEx_0A4JMDG5HL9hJ4v2-56" target="aEx_0A4JMDG5HL9hJ4v2-51">
          <mxGeometry relative="1" as="geometry" />
        </mxCell>
        <mxCell id="aEx_0A4JMDG5HL9hJ4v2-56" value="cin &amp;gt;&amp;gt; pilihan" style="shape=parallelogram;perimeter=parallelogramPerimeter;whiteSpace=wrap;html=1;fixedSize=1;" vertex="1" parent="1">
          <mxGeometry x="138" y="1570" width="120" height="60" as="geometry" />
        </mxCell>
        <mxCell id="aEx_0A4JMDG5HL9hJ4v2-58" value="" style="endArrow=classic;html=1;rounded=0;fontSize=12;startSize=8;endSize=8;curved=1;" edge="1" parent="1">
          <mxGeometry width="50" height="50" relative="1" as="geometry">
            <mxPoint x="113" y="1570" as="sourcePoint" />
            <mxPoint x="154" y="1570" as="targetPoint" />
          </mxGeometry>
        </mxCell>
        <mxCell id="aEx_0A4JMDG5HL9hJ4v2-65" value="" style="edgeStyle=none;curved=1;rounded=0;orthogonalLoop=1;jettySize=auto;html=1;fontSize=12;startSize=8;endSize=8;" edge="1" parent="1" source="aEx_0A4JMDG5HL9hJ4v2-61" target="aEx_0A4JMDG5HL9hJ4v2-63">
          <mxGeometry relative="1" as="geometry" />
        </mxCell>
        <mxCell id="aEx_0A4JMDG5HL9hJ4v2-61" value="pilihan = 1" style="rounded=0;whiteSpace=wrap;html=1;" vertex="1" parent="1">
          <mxGeometry x="-110" y="1680" width="120" height="60" as="geometry" />
        </mxCell>
        <mxCell id="aEx_0A4JMDG5HL9hJ4v2-67" value="" style="edgeStyle=none;curved=1;rounded=0;orthogonalLoop=1;jettySize=auto;html=1;fontSize=12;startSize=8;endSize=8;" edge="1" parent="1" source="aEx_0A4JMDG5HL9hJ4v2-63" target="aEx_0A4JMDG5HL9hJ4v2-66">
          <mxGeometry relative="1" as="geometry" />
        </mxCell>
        <mxCell id="aEx_0A4JMDG5HL9hJ4v2-63" value="masukan nilai&lt;div&gt;foot&lt;/div&gt;" style="shape=parallelogram;perimeter=parallelogramPerimeter;whiteSpace=wrap;html=1;fixedSize=1;" vertex="1" parent="1">
          <mxGeometry x="-300" y="1680" width="120" height="60" as="geometry" />
        </mxCell>
        <mxCell id="aEx_0A4JMDG5HL9hJ4v2-64" value="" style="endArrow=classic;html=1;rounded=0;fontSize=12;startSize=8;endSize=8;curved=1;" edge="1" parent="1">
          <mxGeometry width="50" height="50" relative="1" as="geometry">
            <mxPoint x="-320" y="1680" as="sourcePoint" />
            <mxPoint x="-279" y="1680" as="targetPoint" />
          </mxGeometry>
        </mxCell>
        <mxCell id="aEx_0A4JMDG5HL9hJ4v2-66" value="hasil" style="shape=parallelogram;perimeter=parallelogramPerimeter;whiteSpace=wrap;html=1;fixedSize=1;" vertex="1" parent="1">
          <mxGeometry x="-300" y="1810" width="120" height="60" as="geometry" />
        </mxCell>
        <mxCell id="aEx_0A4JMDG5HL9hJ4v2-68" value="" style="endArrow=classic;html=1;rounded=0;fontSize=12;startSize=8;endSize=8;curved=1;" edge="1" parent="1">
          <mxGeometry width="50" height="50" relative="1" as="geometry">
            <mxPoint x="-210" y="1870" as="sourcePoint" />
            <mxPoint x="-169" y="1870" as="targetPoint" />
          </mxGeometry>
        </mxCell>
        <mxCell id="aEx_0A4JMDG5HL9hJ4v2-73" value="" style="edgeStyle=none;curved=1;rounded=0;orthogonalLoop=1;jettySize=auto;html=1;fontSize=12;startSize=8;endSize=8;" edge="1" parent="1" source="aEx_0A4JMDG5HL9hJ4v2-69" target="aEx_0A4JMDG5HL9hJ4v2-71">
          <mxGeometry relative="1" as="geometry" />
        </mxCell>
        <mxCell id="aEx_0A4JMDG5HL9hJ4v2-69" value="pilihan = 2" style="rounded=0;whiteSpace=wrap;html=1;" vertex="1" parent="1">
          <mxGeometry x="60" y="1810" width="120" height="60" as="geometry" />
        </mxCell>
        <mxCell id="aEx_0A4JMDG5HL9hJ4v2-70" value="" style="endArrow=classic;html=1;rounded=0;fontSize=12;startSize=8;endSize=8;curved=0;entryX=0.5;entryY=0;entryDx=0;entryDy=0;exitX=0;exitY=1;exitDx=0;exitDy=0;" edge="1" parent="1" source="aEx_0A4JMDG5HL9hJ4v2-51" target="aEx_0A4JMDG5HL9hJ4v2-69">
          <mxGeometry width="50" height="50" relative="1" as="geometry">
            <mxPoint x="-30" y="1740" as="sourcePoint" />
            <mxPoint x="20" y="1690" as="targetPoint" />
            <Array as="points">
              <mxPoint x="120" y="1730" />
            </Array>
          </mxGeometry>
        </mxCell>
        <mxCell id="aEx_0A4JMDG5HL9hJ4v2-83" value="" style="edgeStyle=none;curved=1;rounded=0;orthogonalLoop=1;jettySize=auto;html=1;fontSize=12;startSize=8;endSize=8;" edge="1" parent="1" source="aEx_0A4JMDG5HL9hJ4v2-71" target="aEx_0A4JMDG5HL9hJ4v2-79">
          <mxGeometry relative="1" as="geometry" />
        </mxCell>
        <mxCell id="aEx_0A4JMDG5HL9hJ4v2-71" value="masukan nilai&lt;div&gt;meter&lt;/div&gt;" style="shape=parallelogram;perimeter=parallelogramPerimeter;whiteSpace=wrap;html=1;fixedSize=1;" vertex="1" parent="1">
          <mxGeometry x="60" y="1930" width="120" height="60" as="geometry" />
        </mxCell>
        <mxCell id="aEx_0A4JMDG5HL9hJ4v2-72" value="" style="endArrow=classic;html=1;rounded=0;fontSize=12;startSize=8;endSize=8;curved=1;" edge="1" parent="1">
          <mxGeometry width="50" height="50" relative="1" as="geometry">
            <mxPoint x="40" y="1930" as="sourcePoint" />
            <mxPoint x="81" y="1930" as="targetPoint" />
          </mxGeometry>
        </mxCell>
        <mxCell id="aEx_0A4JMDG5HL9hJ4v2-74" value="" style="edgeStyle=none;curved=1;rounded=0;orthogonalLoop=1;jettySize=auto;html=1;fontSize=12;startSize=8;endSize=8;" edge="1" parent="1" source="aEx_0A4JMDG5HL9hJ4v2-75" target="aEx_0A4JMDG5HL9hJ4v2-76">
          <mxGeometry relative="1" as="geometry" />
        </mxCell>
        <mxCell id="aEx_0A4JMDG5HL9hJ4v2-75" value="pilihan = 3" style="rounded=0;whiteSpace=wrap;html=1;" vertex="1" parent="1">
          <mxGeometry x="220" y="1810" width="120" height="60" as="geometry" />
        </mxCell>
        <mxCell id="aEx_0A4JMDG5HL9hJ4v2-84" value="" style="edgeStyle=none;curved=1;rounded=0;orthogonalLoop=1;jettySize=auto;html=1;fontSize=12;startSize=8;endSize=8;" edge="1" parent="1" source="aEx_0A4JMDG5HL9hJ4v2-76" target="aEx_0A4JMDG5HL9hJ4v2-81">
          <mxGeometry relative="1" as="geometry" />
        </mxCell>
        <mxCell id="aEx_0A4JMDG5HL9hJ4v2-76" value="masukan nilai&lt;div&gt;centimeter&lt;/div&gt;" style="shape=parallelogram;perimeter=parallelogramPerimeter;whiteSpace=wrap;html=1;fixedSize=1;" vertex="1" parent="1">
          <mxGeometry x="220" y="1930" width="120" height="60" as="geometry" />
        </mxCell>
        <mxCell id="aEx_0A4JMDG5HL9hJ4v2-77" value="" style="endArrow=classic;html=1;rounded=0;fontSize=12;startSize=8;endSize=8;curved=1;" edge="1" parent="1">
          <mxGeometry width="50" height="50" relative="1" as="geometry">
            <mxPoint x="200" y="1930" as="sourcePoint" />
            <mxPoint x="241" y="1930" as="targetPoint" />
          </mxGeometry>
        </mxCell>
        <mxCell id="aEx_0A4JMDG5HL9hJ4v2-78" value="" style="endArrow=classic;html=1;rounded=0;fontSize=12;startSize=8;endSize=8;curved=0;entryX=0.5;entryY=0;entryDx=0;entryDy=0;exitX=0.794;exitY=0.744;exitDx=0;exitDy=0;exitPerimeter=0;" edge="1" parent="1" source="aEx_0A4JMDG5HL9hJ4v2-51" target="aEx_0A4JMDG5HL9hJ4v2-75">
          <mxGeometry width="50" height="50" relative="1" as="geometry">
            <mxPoint x="100" y="1920" as="sourcePoint" />
            <mxPoint x="150" y="1870" as="targetPoint" />
            <Array as="points">
              <mxPoint x="280" y="1730" />
            </Array>
          </mxGeometry>
        </mxCell>
        <mxCell id="aEx_0A4JMDG5HL9hJ4v2-79" value="hasil" style="shape=parallelogram;perimeter=parallelogramPerimeter;whiteSpace=wrap;html=1;fixedSize=1;" vertex="1" parent="1">
          <mxGeometry x="60" y="2040" width="120" height="60" as="geometry" />
        </mxCell>
        <mxCell id="aEx_0A4JMDG5HL9hJ4v2-80" value="" style="endArrow=classic;html=1;rounded=0;fontSize=12;startSize=8;endSize=8;curved=1;" edge="1" parent="1">
          <mxGeometry width="50" height="50" relative="1" as="geometry">
            <mxPoint x="149" y="2100" as="sourcePoint" />
            <mxPoint x="190" y="2100" as="targetPoint" />
          </mxGeometry>
        </mxCell>
        <mxCell id="aEx_0A4JMDG5HL9hJ4v2-81" value="hasil" style="shape=parallelogram;perimeter=parallelogramPerimeter;whiteSpace=wrap;html=1;fixedSize=1;" vertex="1" parent="1">
          <mxGeometry x="220" y="2040" width="120" height="60" as="geometry" />
        </mxCell>
        <mxCell id="aEx_0A4JMDG5HL9hJ4v2-82" value="" style="endArrow=classic;html=1;rounded=0;fontSize=12;startSize=8;endSize=8;curved=1;" edge="1" parent="1">
          <mxGeometry width="50" height="50" relative="1" as="geometry">
            <mxPoint x="320" y="2100" as="sourcePoint" />
            <mxPoint x="361" y="2100" as="targetPoint" />
          </mxGeometry>
        </mxCell>
        <mxCell id="aEx_0A4JMDG5HL9hJ4v2-89" value="" style="edgeStyle=none;curved=1;rounded=0;orthogonalLoop=1;jettySize=auto;html=1;fontSize=12;startSize=8;endSize=8;" edge="1" parent="1" source="aEx_0A4JMDG5HL9hJ4v2-85" target="aEx_0A4JMDG5HL9hJ4v2-87">
          <mxGeometry relative="1" as="geometry" />
        </mxCell>
        <mxCell id="aEx_0A4JMDG5HL9hJ4v2-85" value="pilihan = 1" style="rounded=0;whiteSpace=wrap;html=1;" vertex="1" parent="1">
          <mxGeometry x="390" y="1680" width="120" height="60" as="geometry" />
        </mxCell>
        <mxCell id="aEx_0A4JMDG5HL9hJ4v2-92" value="" style="edgeStyle=none;curved=1;rounded=0;orthogonalLoop=1;jettySize=auto;html=1;fontSize=12;startSize=8;endSize=8;" edge="1" parent="1" source="aEx_0A4JMDG5HL9hJ4v2-87" target="aEx_0A4JMDG5HL9hJ4v2-90">
          <mxGeometry relative="1" as="geometry" />
        </mxCell>
        <mxCell id="aEx_0A4JMDG5HL9hJ4v2-87" value="masukan nilai&lt;div&gt;foot&lt;/div&gt;" style="shape=parallelogram;perimeter=parallelogramPerimeter;whiteSpace=wrap;html=1;fixedSize=1;" vertex="1" parent="1">
          <mxGeometry x="581" y="1680" width="120" height="60" as="geometry" />
        </mxCell>
        <mxCell id="aEx_0A4JMDG5HL9hJ4v2-88" value="" style="endArrow=classic;html=1;rounded=0;fontSize=12;startSize=8;endSize=8;curved=1;" edge="1" parent="1">
          <mxGeometry width="50" height="50" relative="1" as="geometry">
            <mxPoint x="561" y="1680" as="sourcePoint" />
            <mxPoint x="602" y="1680" as="targetPoint" />
          </mxGeometry>
        </mxCell>
        <mxCell id="aEx_0A4JMDG5HL9hJ4v2-90" value="hasil" style="shape=parallelogram;perimeter=parallelogramPerimeter;whiteSpace=wrap;html=1;fixedSize=1;" vertex="1" parent="1">
          <mxGeometry x="581" y="1790" width="120" height="60" as="geometry" />
        </mxCell>
        <mxCell id="aEx_0A4JMDG5HL9hJ4v2-91" value="" style="endArrow=classic;html=1;rounded=0;fontSize=12;startSize=8;endSize=8;curved=1;" edge="1" parent="1">
          <mxGeometry width="50" height="50" relative="1" as="geometry">
            <mxPoint x="680" y="1850" as="sourcePoint" />
            <mxPoint x="721" y="1850" as="targetPoint" />
          </mxGeometry>
        </mxCell>
        <mxCell id="aEx_0A4JMDG5HL9hJ4v2-93" value="end" style="ellipse;whiteSpace=wrap;html=1;" vertex="1" parent="1">
          <mxGeometry x="138" y="2170" width="120" height="80" as="geometry" />
        </mxCell>
        <mxCell id="aEx_0A4JMDG5HL9hJ4v2-94" style="edgeStyle=none;curved=1;rounded=0;orthogonalLoop=1;jettySize=auto;html=1;exitX=0.5;exitY=1;exitDx=0;exitDy=0;entryX=0.5;entryY=0.833;entryDx=0;entryDy=0;entryPerimeter=0;fontSize=12;startSize=8;endSize=8;" edge="1" parent="1" source="aEx_0A4JMDG5HL9hJ4v2-66" target="aEx_0A4JMDG5HL9hJ4v2-66">
          <mxGeometry relative="1" as="geometry" />
        </mxCell>
        <mxCell id="aEx_0A4JMDG5HL9hJ4v2-95" value="" style="endArrow=classic;html=1;rounded=0;fontSize=12;startSize=8;endSize=8;curved=0;exitX=0.5;exitY=1;exitDx=0;exitDy=0;entryX=0;entryY=0.5;entryDx=0;entryDy=0;" edge="1" parent="1" source="aEx_0A4JMDG5HL9hJ4v2-66" target="aEx_0A4JMDG5HL9hJ4v2-93">
          <mxGeometry width="50" height="50" relative="1" as="geometry">
            <mxPoint x="120" y="2170" as="sourcePoint" />
            <mxPoint x="170" y="2120" as="targetPoint" />
            <Array as="points">
              <mxPoint x="-240" y="2210" />
            </Array>
          </mxGeometry>
        </mxCell>
        <mxCell id="aEx_0A4JMDG5HL9hJ4v2-96" value="" style="endArrow=classic;html=1;rounded=0;fontSize=12;startSize=8;endSize=8;curved=0;exitX=0.5;exitY=1;exitDx=0;exitDy=0;entryX=0;entryY=0;entryDx=0;entryDy=0;" edge="1" parent="1" source="aEx_0A4JMDG5HL9hJ4v2-79" target="aEx_0A4JMDG5HL9hJ4v2-93">
          <mxGeometry width="50" height="50" relative="1" as="geometry">
            <mxPoint x="200" y="2180" as="sourcePoint" />
            <mxPoint x="170" y="2170" as="targetPoint" />
            <Array as="points">
              <mxPoint x="120" y="2182" />
            </Array>
          </mxGeometry>
        </mxCell>
        <mxCell id="aEx_0A4JMDG5HL9hJ4v2-97" value="" style="endArrow=classic;html=1;rounded=0;fontSize=12;startSize=8;endSize=8;curved=0;exitX=0.46;exitY=1.058;exitDx=0;exitDy=0;exitPerimeter=0;entryX=0.904;entryY=0.175;entryDx=0;entryDy=0;entryPerimeter=0;" edge="1" parent="1" source="aEx_0A4JMDG5HL9hJ4v2-81" target="aEx_0A4JMDG5HL9hJ4v2-93">
          <mxGeometry width="50" height="50" relative="1" as="geometry">
            <mxPoint x="170" y="2190" as="sourcePoint" />
            <mxPoint x="220" y="2140" as="targetPoint" />
            <Array as="points">
              <mxPoint x="275" y="2184" />
            </Array>
          </mxGeometry>
        </mxCell>
        <mxCell id="aEx_0A4JMDG5HL9hJ4v2-98" value="" style="endArrow=classic;html=1;rounded=0;fontSize=12;startSize=8;endSize=8;curved=0;entryX=0.996;entryY=0.662;entryDx=0;entryDy=0;entryPerimeter=0;exitX=0.5;exitY=1;exitDx=0;exitDy=0;" edge="1" parent="1" source="aEx_0A4JMDG5HL9hJ4v2-90" target="aEx_0A4JMDG5HL9hJ4v2-93">
          <mxGeometry width="50" height="50" relative="1" as="geometry">
            <mxPoint x="310" y="2120" as="sourcePoint" />
            <mxPoint x="360" y="2070" as="targetPoint" />
            <Array as="points">
              <mxPoint x="640" y="2220" />
            </Array>
          </mxGeometry>
        </mxCell>
      </root>
    </mxGraphModel>
  </diagram>
</mxfile>
